<mxfile host="Electron" agent="Mozilla/5.0 (Windows NT 10.0; Win64; x64) AppleWebKit/537.36 (KHTML, like Gecko) draw.io/28.1.2 Chrome/138.0.7204.243 Electron/37.4.0 Safari/537.36" version="28.1.2">
  <diagram name="Page-1" id="nED_pMUPoF1HIG0YiIkf">
    <mxGraphModel dx="595" dy="358" grid="1" gridSize="10" guides="1" tooltips="1" connect="1" arrows="1" fold="1" page="1" pageScale="1" pageWidth="827" pageHeight="1169" math="0" shadow="0">
      <root>
        <mxCell id="0" />
        <mxCell id="1" parent="0" />
        <mxCell id="z8BdV_4F8MJfEBGj7S62-6" value="" style="edgeStyle=orthogonalEdgeStyle;rounded=0;orthogonalLoop=1;jettySize=auto;html=1;startArrow=classic;startFill=1;" edge="1" parent="1" source="z8BdV_4F8MJfEBGj7S62-1" target="z8BdV_4F8MJfEBGj7S62-4">
          <mxGeometry relative="1" as="geometry" />
        </mxCell>
        <mxCell id="z8BdV_4F8MJfEBGj7S62-1" value="User" style="shape=umlActor;verticalLabelPosition=bottom;verticalAlign=top;html=1;outlineConnect=0;" vertex="1" parent="1">
          <mxGeometry x="70" y="110" width="30" height="60" as="geometry" />
        </mxCell>
        <mxCell id="z8BdV_4F8MJfEBGj7S62-3" value="&lt;span style=&quot;color: rgba(0,0,0,var(--O42jJQ,1)); caret-color: rgb(0, 0, 0); --Ys-XuQ: none; font-kerning: none;&quot; class=&quot;a_GcMg font-feature-liga-off font-feature-clig-off font-feature-calt-off text-decoration-none text-strikethrough-none&quot;&gt;Model&amp;nbsp;&lt;/span&gt;" style="rounded=1;whiteSpace=wrap;html=1;gradientColor=#FAFFA0;gradientDirection=east;fillColor=#A4FDFF;strokeColor=none;" vertex="1" parent="1">
          <mxGeometry x="470" y="110" width="120" height="60" as="geometry" />
        </mxCell>
        <mxCell id="z8BdV_4F8MJfEBGj7S62-10" value="" style="edgeStyle=orthogonalEdgeStyle;rounded=0;orthogonalLoop=1;jettySize=auto;html=1;startArrow=classic;startFill=1;" edge="1" parent="1" source="z8BdV_4F8MJfEBGj7S62-4" target="z8BdV_4F8MJfEBGj7S62-5">
          <mxGeometry relative="1" as="geometry" />
        </mxCell>
        <mxCell id="z8BdV_4F8MJfEBGj7S62-4" value="View" style="rounded=1;whiteSpace=wrap;html=1;gradientColor=#FAFFA0;gradientDirection=east;fillColor=#A4FDFF;strokeColor=none;" vertex="1" parent="1">
          <mxGeometry x="167" y="110" width="120" height="60" as="geometry" />
        </mxCell>
        <mxCell id="z8BdV_4F8MJfEBGj7S62-11" value="" style="edgeStyle=orthogonalEdgeStyle;rounded=0;orthogonalLoop=1;jettySize=auto;html=1;startArrow=classic;startFill=1;" edge="1" parent="1" source="z8BdV_4F8MJfEBGj7S62-5" target="z8BdV_4F8MJfEBGj7S62-3">
          <mxGeometry relative="1" as="geometry" />
        </mxCell>
        <mxCell id="z8BdV_4F8MJfEBGj7S62-5" value="&lt;span style=&quot;color: rgba(0,0,0,var(--O42jJQ,1)); caret-color: rgb(0, 0, 0); --Ys-XuQ: none; font-kerning: none;&quot; class=&quot;a_GcMg font-feature-liga-off font-feature-clig-off font-feature-calt-off text-decoration-none text-strikethrough-none&quot;&gt;Controller&lt;/span&gt;" style="rounded=1;whiteSpace=wrap;html=1;gradientColor=#FAFFA0;gradientDirection=east;fillColor=#A4FDFF;strokeColor=none;" vertex="1" parent="1">
          <mxGeometry x="320" y="110" width="120" height="60" as="geometry" />
        </mxCell>
      </root>
    </mxGraphModel>
  </diagram>
</mxfile>
